<svg viewBox="0 0 32 32" fill="none" xmlns="http://www.w3.org/2000/svg">
  <style>
      path {
          fill: #000000;
      }

      @media (prefers-color-scheme: dark) {
          path {
              fill: #ffffff;
          }
      }
  </style>
  <path fill-rule="evenodd" clip-rule="evenodd" d="M11.218.282v4.957c0 .225.056.282.28.225 1.233-.225 2.242-.788 3.139-1.802.84-.958 1.288-2.085 1.4-3.38 0-.17.113-.282.337-.282h.789c.169 0 .28.113.28.282v4.957c0 .225.057.282.28.225 1.234-.225 2.299-.788 3.14-1.802.84-.958 1.288-2.085 1.4-3.38 0-.17.113-.282.337-.282h.785c.168 0 .28.113.28.282v5.97a6.6 6.6 0 01-.953 3.437c-.616 1.07-1.401 1.915-2.41 2.535-.112.113-.168.169-.168.282a.31.31 0 00.168.281c.673.395 1.233.902 1.737 1.521.505.62.897 1.296 1.177 2.084.28.79.449 1.578.449 2.366v6.623c0 .225-.112.282-.28.282H22.6c-.224 0-.336-.057-.336-.282a6.018 6.018 0 00-1.401-3.38c-.897-.958-1.906-1.577-3.14-1.803-.223 0-.28.113-.28.226v11.294c0 .226-.111.282-.336.282h-.728c-.224 0-.337-.056-.337-.282V15.974c0-.226.113-.338.337-.338h.728c.225 0 .337.112.337.338v2.535c0 .168.056.281.28.281a6.697 6.697 0 014.147 2.197c.056.113.112.113.225.056.112 0 .168-.112.168-.225v-2.06c0-1.464-.505-2.703-1.514-3.774-1.009-1.07-2.241-1.69-3.699-1.802-.224 0-.28-.057-.28-.282v-.789c0-.225.056-.338.28-.338 1.458-.056 2.69-.62 3.7-1.69 1.008-1.07 1.513-2.366 1.513-3.83V4.845c0-.113-.056-.17-.168-.226-.113 0-.169 0-.225.057-1.223 1.332-2.724 2.104-4.462 2.233-.136 1.474-.73 2.776-1.708 3.907-1.177 1.352-2.578 2.084-4.26 2.31-.167.056-.223.112-.223.225v4.183l1.723-1.723c.113-.113.282-.113.451 0l.565.564c.113.17.113.339 0 .452l-2.202 2.144c-.169.17-.169.34 0 .452l2.202 2.201c.113.17.113.339 0 .452l-.565.564c-.169.17-.338.17-.451 0l-1.605-1.604v4.39c0 .243-.121.303-.364.303h-.79c-.244 0-.366-.06-.366-.304V20.91l-1.73 1.73c-.169.17-.338.17-.451 0l-.508-.564c-.17-.113-.17-.282 0-.452l2.145-2.201c.113-.113.113-.282 0-.451l-2.145-2.145c-.17-.113-.17-.283 0-.452l.508-.565c.113-.112.282-.112.452 0l1.73 1.73v-4.865c0-.113 0-.226.112-.338l.448-.395c.056-.112.168-.169.336-.169 1.457 0 2.69-.563 3.755-1.633 1.01-1.07 1.57-2.366 1.57-3.887V4.845c0-.113-.056-.17-.168-.226-.113 0-.169 0-.225.057-1.345 1.464-2.97 2.253-4.932 2.253-.112 0-.224 0-.336-.113l-.448-.45c-.113-.057-.113-.17-.113-.339V.282c0-.17.113-.282.337-.282h.728c.225 0 .337.113.337.282zm12.447 13.097a.939.939 0 100-1.878.939.939 0 000 1.878z"/>
</svg>
